HIERARCHY
ROOT newVegas:Hips
{
	OFFSET 0.000000 96.479958 0.000000
	CHANNELS 6 Xposition Yposition Zposition Xrotation Yrotation Zrotation
	JOINT newVegas:Pelvis
	{
		OFFSET 0.000000 0.000000 0.000000
		CHANNELS 3 Xrotation Yrotation Zrotation
		JOINT newVegas:LeftUpLeg
		{
			OFFSET 18.735201 -5.666702 -4.541200
			CHANNELS 3 Xrotation Yrotation Zrotation
			JOINT newVegas:LeftLeg
			{
				OFFSET -0.021200 -31.938179 0.493100
				CHANNELS 3 Xrotation Yrotation Zrotation
				JOINT newVegas:LeftFoot
				{
					OFFSET 0.021200 -31.938179 -4.336299
					CHANNELS 3 Xrotation Yrotation Zrotation
					JOINT newVegas:LeftToeBase
					{
						OFFSET 0.943001 -26.722000 15.023500
						CHANNELS 3 Xrotation Yrotation Zrotation
						End Site
						{
							OFFSET 0.000000 30.670183 0.000000
						}
					}
				}
				JOINT newVegas:Left_PantLeg
				{
					OFFSET 0.663870 -9.044666 -1.108900
					CHANNELS 3 Xrotation Yrotation Zrotation
					End Site
					{
						OFFSET 1.415995 20.635357 0.000000
					}
				}
			}
		}
		JOINT newVegas:RightUpLeg
		{
			OFFSET -18.735201 -5.666702 -4.541200
			CHANNELS 3 Xrotation Yrotation Zrotation
			JOINT newVegas:RightLeg
			{
				OFFSET 0.018946 -31.938133 0.493100
				CHANNELS 3 Xrotation Yrotation Zrotation
				JOINT newVegas:RightFoot
				{
					OFFSET -0.018946 -31.938126 -4.336299
					CHANNELS 3 Xrotation Yrotation Zrotation
					JOINT newVegas:RightToeBase
					{
						OFFSET -0.943001 -26.722004 15.023500
						CHANNELS 3 Xrotation Yrotation Zrotation
						End Site
						{
							OFFSET 0.000000 30.670187 0.000000
						}
					}
				}
				JOINT newVegas:Right_PantLeg
				{
					OFFSET -0.661674 -9.044716 -1.108900
					CHANNELS 3 Xrotation Yrotation Zrotation
					End Site
					{
						OFFSET -1.415958 20.635269 0.000000
					}
				}
			}
		}
	}
	JOINT newVegas:Spine
	{
		OFFSET 0.000000 10.199997 -0.299500
		CHANNELS 3 Xrotation Yrotation Zrotation
		JOINT newVegas:Spine1
		{
			OFFSET 0.000000 11.900002 -1.516600
			CHANNELS 3 Xrotation Yrotation Zrotation
			JOINT newVegas:Spine2
			{
				OFFSET 0.000000 13.600006 -2.842500
				CHANNELS 3 Xrotation Yrotation Zrotation
				JOINT newVegas:Neck
				{
					OFFSET 0.000000 9.624100 -2.890100
					CHANNELS 3 Xrotation Yrotation Zrotation
					JOINT newVegas:Head
					{
						OFFSET 0.000000 14.068802 -1.351900
						CHANNELS 3 Xrotation Yrotation Zrotation
						JOINT newVegas:Hair_Back
						{
							OFFSET 0.000000 3.231903 -17.524799
							CHANNELS 3 Xrotation Yrotation Zrotation
							End Site
							{
								OFFSET 0.000000 19.849884 0.000000
							}
						}
						JOINT newVegas:Hair_Front
						{
							OFFSET 0.000000 31.260406 4.573800
							CHANNELS 3 Xrotation Yrotation Zrotation
							JOINT newVegas:Hair_Front1
							{
								OFFSET 0.000000 2.284103 11.993300
								CHANNELS 3 Xrotation Yrotation Zrotation
								JOINT newVegas:Hair_Front2
								{
									OFFSET 0.000000 2.284103 11.993300
									CHANNELS 3 Xrotation Yrotation Zrotation
									End Site
									{
										OFFSET 0.000000 12.208862 0.000000
									}
								}
							}
						}
						JOINT newVegas:Jowel
						{
							OFFSET 0.000000 -7.458206 6.864100
							CHANNELS 3 Xrotation Yrotation Zrotation
							End Site
							{
								OFFSET 0.000000 19.849884 0.000000
							}
						}
					}
				}
				JOINT newVegas:LeftShoulder
				{
					OFFSET 15.263000 10.923401 -0.547700
					CHANNELS 3 Xrotation Yrotation Zrotation
					JOINT newVegas:LeftArm
					{
						OFFSET 25.438599 -2.830597 -13.032500
						CHANNELS 3 Xrotation Yrotation Zrotation
						JOINT newVegas:LeftForeArm
						{
							OFFSET 29.960503 0.000000 0.000000
							CHANNELS 3 Xrotation Yrotation Zrotation
							JOINT newVegas:LeftHand
							{
								OFFSET 27.849251 0.000000 0.000000
								CHANNELS 3 Xrotation Yrotation Zrotation
								JOINT newVegas:LeftHandThumb1
								{
									OFFSET 4.487587 -3.305161 6.305391
									CHANNELS 3 Xrotation Yrotation Zrotation
									JOINT newVegas:LeftHandThumb2
									{
										OFFSET 5.480453 -3.164139 3.164143
										CHANNELS 3 Xrotation Yrotation Zrotation
										JOINT newVegas:LeftHandThumb3
										{
											OFFSET 5.159721 -2.978973 2.978967
											CHANNELS 3 Xrotation Yrotation Zrotation
											End Site
											{
												OFFSET 2.494507 5.926697 1.738678
											}
										}
									}
								}
								JOINT newVegas:LeftHandIndex1
								{
									OFFSET 18.578728 -0.527832 5.208049
									CHANNELS 3 Xrotation Yrotation Zrotation
									JOINT newVegas:LeftHandIndex2
									{
										OFFSET 3.192009 0.000000 0.000000
										CHANNELS 3 Xrotation Yrotation Zrotation
										JOINT newVegas:LeftHandIndex3
										{
											OFFSET 3.835129 0.000000 0.000000
											CHANNELS 3 Xrotation Yrotation Zrotation
											End Site
											{
												OFFSET -0.034599 3.816971 0.371180
											}
										}
									}
								}
								JOINT newVegas:LeftHandMiddle1
								{
									OFFSET 18.476105 0.000000 0.000000
									CHANNELS 3 Xrotation Yrotation Zrotation
									JOINT newVegas:LeftHandMiddle2
									{
										OFFSET 3.324875 0.000000 0.000000
										CHANNELS 3 Xrotation Yrotation Zrotation
										JOINT newVegas:LeftHandMiddle3
										{
											OFFSET 4.596550 0.000000 0.000000
											CHANNELS 3 Xrotation Yrotation Zrotation
											End Site
											{
												OFFSET 0.057701 4.578827 0.399218
											}
										}
									}
								}
								JOINT newVegas:LeftHandRing1
								{
									OFFSET 17.732719 0.121887 -4.201567
									CHANNELS 3 Xrotation Yrotation Zrotation
									JOINT newVegas:LeftHandRing2
									{
										OFFSET 2.733170 0.000000 0.000000
										CHANNELS 3 Xrotation Yrotation Zrotation
										JOINT newVegas:LeftHandRing3
										{
											OFFSET 3.178268 0.000000 0.000000
											CHANNELS 3 Xrotation Yrotation Zrotation
											End Site
											{
												OFFSET 0.119102 3.170624 0.185394
											}
										}
									}
								}
								JOINT newVegas:LeftHandPinky1
								{
									OFFSET 15.989624 -0.606689 -7.535461
									CHANNELS 3 Xrotation Yrotation Zrotation
									JOINT newVegas:LeftHandPinky2
									{
										OFFSET 2.538986 0.000000 0.000000
										CHANNELS 3 Xrotation Yrotation Zrotation
										JOINT newVegas:LeftHandPinky3
										{
											OFFSET 2.593102 0.000000 0.000000
											CHANNELS 3 Xrotation Yrotation Zrotation
											End Site
											{
												OFFSET -0.150902 2.584198 0.152708
											}
										}
									}
								}
							}
							JOINT newVegas:Left_Sleeve
							{
								OFFSET 0.267448 -0.649796 0.577675
								CHANNELS 3 Xrotation Yrotation Zrotation
								End Site
								{
									OFFSET 0.000000 15.991241 0.000000
								}
							}
							JOINT newVegas:Left_CapeC
							{
								OFFSET 15.715958 -8.608795 -6.935905
								CHANNELS 3 Xrotation Yrotation Zrotation
								JOINT newVegas:Left_CapeC1
								{
									OFFSET 0.000000 -8.688499 0.000000
									CHANNELS 3 Xrotation Yrotation Zrotation
									End Site
									{
										OFFSET 0.000000 8.688499 0.000000
									}
								}
							}
						}
						JOINT newVegas:Left_CapeB
						{
							OFFSET 26.118385 -8.608795 -7.079235
							CHANNELS 3 Xrotation Yrotation Zrotation
							JOINT newVegas:Left_CapeB1
							{
								OFFSET 0.000000 -8.688499 0.000000
								CHANNELS 3 Xrotation Yrotation Zrotation
								End Site
								{
									OFFSET 0.000000 8.688499 0.000000
								}
							}
						}
						JOINT newVegas:Left_CapeA
						{
							OFFSET 5.115639 -8.608795 -10.395809
							CHANNELS 3 Xrotation Yrotation Zrotation
							JOINT newVegas:Left_CapeA1
							{
								OFFSET 0.000000 -8.688499 0.000000
								CHANNELS 3 Xrotation Yrotation Zrotation
								End Site
								{
									OFFSET 0.000000 8.688499 0.000000
								}
							}
						}
					}
				}
				JOINT newVegas:RightShoulder
				{
					OFFSET -15.263000 10.923401 -0.547700
					CHANNELS 3 Xrotation Yrotation Zrotation
					JOINT newVegas:RightArm
					{
						OFFSET -25.438599 -2.830597 -13.032500
						CHANNELS 3 Xrotation Yrotation Zrotation
						JOINT newVegas:RightForeArm
						{
							OFFSET -29.960503 0.000000 0.000000
							CHANNELS 3 Xrotation Yrotation Zrotation
							JOINT newVegas:RightHand
							{
								OFFSET -27.849251 0.000000 0.000000
								CHANNELS 3 Xrotation Yrotation Zrotation
								JOINT newVegas:RightHandThumb1
								{
									OFFSET -4.487587 -3.305161 6.305391
									CHANNELS 3 Xrotation Yrotation Zrotation
									JOINT newVegas:RightHandThumb2
									{
										OFFSET -5.480453 -3.164139 3.164143
										CHANNELS 3 Xrotation Yrotation Zrotation
										JOINT newVegas:RightHandThumb3
										{
											OFFSET -5.159721 -2.978973 2.978967
											CHANNELS 3 Xrotation Yrotation Zrotation
											End Site
											{
												OFFSET -2.494507 5.926697 1.738678
											}
										}
									}
								}
								JOINT newVegas:RightHandIndex1
								{
									OFFSET -18.578728 -0.527832 5.208049
									CHANNELS 3 Xrotation Yrotation Zrotation
									JOINT newVegas:RightHandIndex2
									{
										OFFSET -3.192009 0.000000 0.000000
										CHANNELS 3 Xrotation Yrotation Zrotation
										JOINT newVegas:RightHandIndex3
										{
											OFFSET -3.835129 0.000000 0.000000
											CHANNELS 3 Xrotation Yrotation Zrotation
											End Site
											{
												OFFSET 0.034599 3.816971 0.371180
											}
										}
									}
								}
								JOINT newVegas:RightHandMiddle1
								{
									OFFSET -18.476105 0.000000 0.000000
									CHANNELS 3 Xrotation Yrotation Zrotation
									JOINT newVegas:RightHandMiddle2
									{
										OFFSET -3.324875 0.000000 0.000000
										CHANNELS 3 Xrotation Yrotation Zrotation
										JOINT newVegas:RightHandMiddle3
										{
											OFFSET -4.596550 0.000000 0.000000
											CHANNELS 3 Xrotation Yrotation Zrotation
											End Site
											{
												OFFSET -0.057701 4.578827 0.399218
											}
										}
									}
								}
								JOINT newVegas:RightHandRing1
								{
									OFFSET -17.732719 0.121887 -4.201567
									CHANNELS 3 Xrotation Yrotation Zrotation
									JOINT newVegas:RightHandRing2
									{
										OFFSET -2.733170 0.000000 0.000000
										CHANNELS 3 Xrotation Yrotation Zrotation
										JOINT newVegas:RightHandRing3
										{
											OFFSET -3.178268 0.000000 0.000000
											CHANNELS 3 Xrotation Yrotation Zrotation
											End Site
											{
												OFFSET -0.119102 3.170624 0.185394
											}
										}
									}
								}
								JOINT newVegas:RightHandPinky1
								{
									OFFSET -15.989624 -0.606689 -7.535461
									CHANNELS 3 Xrotation Yrotation Zrotation
									JOINT newVegas:RightHandPinky2
									{
										OFFSET -2.538986 0.000000 0.000000
										CHANNELS 3 Xrotation Yrotation Zrotation
										JOINT newVegas:RightHandPinky3
										{
											OFFSET -2.593102 0.000000 0.000000
											CHANNELS 3 Xrotation Yrotation Zrotation
											End Site
											{
												OFFSET 0.150902 2.584198 0.152708
											}
										}
									}
								}
							}
							JOINT newVegas:Right_CapeC
							{
								OFFSET -15.715958 -8.608795 -6.935905
								CHANNELS 3 Xrotation Yrotation Zrotation
								JOINT newVegas:Right_CapeC1
								{
									OFFSET 0.000000 -8.688499 0.000000
									CHANNELS 3 Xrotation Yrotation Zrotation
									End Site
									{
										OFFSET 0.000000 8.688499 0.000000
									}
								}
							}
							JOINT newVegas:Right_Sleeve
							{
								OFFSET -0.267448 -0.649994 0.577675
								CHANNELS 3 Xrotation Yrotation Zrotation
								End Site
								{
									OFFSET 0.000000 15.991302 0.000000
								}
							}
						}
						JOINT newVegas:Right_CapeA
						{
							OFFSET -5.115540 -8.608795 -10.395824
							CHANNELS 3 Xrotation Yrotation Zrotation
							JOINT newVegas:Right_CapeA1
							{
								OFFSET 0.000000 -8.688499 0.000000
								CHANNELS 3 Xrotation Yrotation Zrotation
								End Site
								{
									OFFSET 0.000000 8.688499 0.000000
								}
							}
						}
						JOINT newVegas:Right_CapeB
						{
							OFFSET -26.118187 -8.608795 -7.079266
							CHANNELS 3 Xrotation Yrotation Zrotation
							JOINT newVegas:Right_CapeB1
							{
								OFFSET 0.000000 -8.688499 0.000000
								CHANNELS 3 Xrotation Yrotation Zrotation
								End Site
								{
									OFFSET 0.000000 8.688499 0.000000
								}
							}
						}
					}
				}
				JOINT newVegas:Left_Collar
				{
					OFFSET 18.625099 8.655502 8.828100
					CHANNELS 3 Xrotation Yrotation Zrotation
					JOINT newVegas:Left_Collar1
					{
						OFFSET 14.783401 10.540405 -1.259500
						CHANNELS 3 Xrotation Yrotation Zrotation
						End Site
						{
							OFFSET 0.000000 18.199875 0.000000
						}
					}
				}
				JOINT newVegas:Collar_Back
				{
					OFFSET 0.000000 15.630707 -20.132601
					CHANNELS 3 Xrotation Yrotation Zrotation
					End Site
					{
						OFFSET 0.000000 22.523010 0.000000
					}
				}
				JOINT newVegas:Left_Peck
				{
					OFFSET 17.239599 -5.132599 25.482599
					CHANNELS 3 Xrotation Yrotation Zrotation
					End Site
					{
						OFFSET 0.000000 22.523010 0.000000
					}
				}
				JOINT newVegas:Right_Peck
				{
					OFFSET -17.239599 -5.132202 25.482599
					CHANNELS 3 Xrotation Yrotation Zrotation
					End Site
					{
						OFFSET 0.000000 22.523010 0.000000
					}
				}
				JOINT newVegas:Right_Collar
				{
					OFFSET -18.625099 8.655792 8.828100
					CHANNELS 3 Xrotation Yrotation Zrotation
					JOINT newVegas:Right_Collar1
					{
						OFFSET -14.783401 10.539993 -1.259500
						CHANNELS 3 Xrotation Yrotation Zrotation
						End Site
						{
							OFFSET 0.000000 18.199631 0.000000
						}
					}
				}
			}
		}
		JOINT newVegas:Belly
		{
			OFFSET 0.000000 -6.540398 9.014299
			CHANNELS 3 Xrotation Yrotation Zrotation
			End Site
			{
				OFFSET 0.000000 11.566666 0.000000
			}
		}
	}
	JOINT newVegas:ElvisFacialAnim_Joint
	{
		OFFSET 1.000000 -95.330101 -8.825800
		CHANNELS 3 Xrotation Yrotation Zrotation
		End Site
		{
			OFFSET 0.000000 35.315800 0.000000
		}
	}
}
MOTION
Frames: 4
Frame Time: 0.033333
-12.827677 27.533890 80.044212 75.241726 29.448183 16.180448 -0.000000 0.000001 -0.000000 -127.082773 2.305566 58.850494 119.450720 2.869007 -2.500689 21.712960 -25.400792 13.626174 0.000001 0.000002 0.000001 -0.000000 -0.000001 -0.000000 334.605312 -23.079329 -32.044447 52.858858 -4.309519 -9.202641 -22.017122 -13.331476 30.411363 -0.000001 -0.000001 -0.000000 -0.000000 0.000000 -0.000001 7.673836 -24.592024 -15.533138 0.607311 -5.641741 -7.446657 0.837325 -5.365723 -7.478182 -4.941774 0.432710 1.450737 -4.941764 0.432716 1.450739 -0.000001 -0.000000 0.000000 -4.941745 0.432708 1.450730 -4.941785 0.432714 1.450733 0.000002 -0.000001 0.000002 -0.000001 -0.000000 -0.000001 2.643332 8.861064 17.294531 17.142808 -20.081113 -26.627757 0.000007 -120.924210 -0.000006 48.277710 18.784286 9.722926 0.786785 -9.167669 -3.298037 5.622869 12.178608 5.354622 0.000004 -0.000002 -0.000003 0.285487 -0.949599 -10.942816 0.715598 2.807656 -28.592024 -0.000000 -0.000000 0.000001 0.392237 4.294744 -18.544469 0.534778 2.447245 -24.648850 -0.000000 -0.000000 0.000000 1.362349 6.492509 -24.181953 0.684082 2.749108 -27.941660 0.000001 -0.000003 0.000004 1.915413 10.680035 -29.757823 0.552046 2.484542 -25.050595 -0.000001 -0.000003 -0.000001 -0.000001 0.000003 0.000003 -0.000001 0.000003 0.000003 -0.000002 0.000003 0.000003 0.000003 -0.000003 -0.000001 0.000003 -0.000003 -0.000001 0.000003 -0.000003 -0.000001 0.000002 -0.000003 -0.000002 -0.134919 10.031106 0.055803 -70.658812 16.188248 48.427598 -0.000056 70.148065 0.000040 54.182053 -3.508661 -16.201084 -15.679725 12.930311 -15.494774 1.312327 -13.365186 -17.259287 0.000000 -0.000005 -0.000003 1.785275 2.351729 -13.967654 0.001672 -0.124813 1.532384 -0.000000 -0.000001 -0.000000 -0.761870 -4.802791 -14.729272 0.000262 -0.049120 0.603258 0.000001 -0.000001 -0.000000 -1.670025 -8.616074 -14.324537 0.021555 -0.448038 5.508672 0.000001 -0.000003 0.000001 -15.541482 -12.550349 -16.532888 0.032194 -0.547266 6.733755 0.000000 -0.000002 0.000001 -0.000005 -0.000001 -0.000000 -0.000001 -0.000001 -0.000001 -0.000005 -0.000001 0.000002 -0.000002 0.000000 -0.000001 -0.000002 0.000000 -0.000002 -0.000002 0.000000 -0.000001 -0.000002 -0.000000 -0.000002 0.000000 -0.000001 0.000002 0.000000 -0.000001 0.000002 0.000000 -0.000001 0.000002 0.000000 -0.000001 0.000002 0.000000 -0.000001 0.000002 0.000000 -0.000001 0.000002 0.000000 -0.000001 0.000002 0.000000 0.000000 -0.000000 -0.000000 0.000001 -0.000000 
-13.116676 27.466530 81.801704 73.818246 28.279481 16.289733 -0.000000 0.000000 -0.000000 -122.711821 2.171155 58.986586 118.971582 1.950638 -2.295782 18.885772 -26.169112 11.925244 -0.000001 0.000002 -0.000000 -0.000000 0.000000 0.000000 335.382150 -22.745910 -32.097050 52.740805 -4.345386 -9.283155 -18.053349 -10.600784 30.986434 -0.000000 -0.000002 -0.000001 -0.000000 0.000000 -0.000001 7.392869 -24.992494 -15.722677 0.515275 -5.741419 -7.471365 0.738024 -5.469669 -7.507878 -4.903084 0.477195 1.429132 -4.903080 0.477191 1.429142 -0.000001 0.000000 -0.000000 -4.903127 0.477176 1.429138 -4.903025 0.477211 1.429125 -0.000000 0.000000 0.000001 -0.000001 0.000000 -0.000002 1.966553 10.678351 21.372217 12.044589 -20.548730 -31.435515 -0.000005 -124.473436 0.000007 46.722148 20.869759 0.905351 1.147824 -9.130161 -3.806849 5.622869 12.178625 5.354610 0.000003 0.000002 -0.000001 0.526595 0.592890 -11.328888 0.921166 3.155263 -32.542768 0.000001 0.000001 0.000000 0.490347 4.555904 -20.993456 0.693641 2.767011 -28.140133 -0.000002 -0.000001 -0.000005 1.260747 6.107593 -26.987988 0.880902 3.091323 -31.803751 0.000002 -0.000000 -0.000004 1.554949 10.067408 -32.136187 0.712702 2.802350 -28.532779 0.000002 -0.000005 -0.000002 -0.000001 0.000001 0.000002 -0.000001 0.000001 0.000002 -0.000002 0.000001 0.000002 0.000001 -0.000001 -0.000000 0.000002 -0.000001 0.000000 0.000001 -0.000001 -0.000000 0.000001 -0.000001 -0.000000 -0.385805 10.231681 1.401777 -68.471362 18.897142 50.854624 -0.000046 68.542997 0.000060 54.876851 -3.604068 -18.886796 -15.679831 12.931140 -15.494470 1.312327 -13.365184 -17.259285 0.000001 -0.000002 0.000003 1.785277 2.351737 -13.967663 0.001671 -0.124815 1.532387 -0.000001 -0.000003 -0.000000 -0.761874 -4.802793 -14.729282 0.000261 -0.049134 0.603261 0.000001 -0.000001 -0.000000 -1.670035 -8.616082 -14.324553 0.021556 -0.448054 5.508663 0.000000 -0.000001 -0.000001 -15.542193 -12.549591 -16.532876 0.032193 -0.547249 6.733760 -0.000001 0.000001 0.000001 -0.000001 0.000002 0.000002 0.000003 -0.000004 0.000004 -0.000001 0.000001 0.000003 -0.000001 -0.000003 -0.000003 -0.000000 -0.000002 -0.000003 -0.000001 -0.000003 -0.000003 0.000000 -0.000002 -0.000003 -0.000000 -0.000000 -0.000001 -0.000000 -0.000000 -0.000001 -0.000000 -0.000000 -0.000001 -0.000000 -0.000000 -0.000001 -0.000000 -0.000000 -0.000001 -0.000000 -0.000000 -0.000001 -0.000000 -0.000000 -0.000001 0.000000 -0.000001 0.000000 -0.000000 0.000000 -0.000000 
-13.302534 27.444206 83.497162 72.550426 27.016632 16.297475 0.000001 -0.000004 -0.000001 -117.974429 1.755616 58.790321 118.146686 0.452844 -2.301406 16.472552 -26.521220 9.184647 -0.000000 0.000001 -0.000001 0.000000 -0.000000 0.000003 335.711611 -22.207160 -32.336469 52.831059 -4.364566 -9.343317 -14.014537 -7.664615 31.316212 0.000000 -0.000004 -0.000000 -0.000001 0.000002 0.000000 7.094108 -25.309777 -15.840704 0.409374 -5.810772 -7.384638 0.631284 -5.543127 -7.425967 -4.844843 0.523783 1.431486 -4.844818 0.523783 1.431494 -0.000000 0.000000 -0.000001 -4.844812 0.523794 1.431483 -4.844797 0.523780 1.431487 0.000001 0.000000 -0.000000 -0.000000 0.000000 -0.000002 1.408093 11.525686 24.453763 6.436097 -19.826837 -35.573838 0.000002 -127.084002 0.000001 45.458932 22.872978 -5.323449 1.122215 -9.132346 -3.769958 5.622881 12.178616 5.354616 0.000003 -0.000000 -0.000003 0.703310 1.686836 -10.947373 1.034193 3.325469 -34.542223 -0.000001 -0.000000 0.000000 0.536531 4.668493 -21.828154 0.786585 2.934006 -30.009450 0.000002 0.000000 0.000002 1.075227 5.712421 -28.212563 0.989466 3.259630 -33.763220 0.000000 0.000001 0.000001 0.819299 9.555276 -32.912359 0.802768 2.961822 -30.324244 -0.000001 -0.000001 -0.000006 -0.000002 -0.000001 -0.000001 -0.000002 -0.000001 -0.000001 -0.000003 -0.000001 -0.000001 0.000001 -0.000001 -0.000001 0.000002 -0.000002 -0.000003 0.000001 -0.000001 -0.000001 0.000001 -0.000001 -0.000002 -0.601545 10.527786 2.534088 -66.549689 21.773712 52.959200 0.000072 66.674346 -0.000082 55.459422 -3.654222 -21.530853 -15.679936 12.931997 -15.494148 1.312333 -13.365184 -17.259280 -0.000000 0.000002 -0.000002 1.785275 2.351740 -13.967660 0.001666 -0.124817 1.532385 -0.000000 0.000002 -0.000000 -0.761866 -4.802761 -14.729279 0.000255 -0.049177 0.603260 0.000000 0.000000 0.000000 -1.670037 -8.616073 -14.324548 0.021559 -0.448063 5.508669 -0.000000 -0.000001 -0.000001 -15.542910 -12.548762 -16.532860 0.032198 -0.547286 6.733753 0.000000 -0.000003 -0.000002 -0.000002 0.000001 -0.000001 -0.000001 0.000000 -0.000002 -0.000002 0.000001 0.000001 -0.000001 -0.000001 0.000000 -0.000001 -0.000001 0.000000 -0.000001 -0.000001 0.000000 -0.000001 -0.000001 0.000000 -0.000001 0.000000 -0.000002 -0.000001 0.000000 -0.000002 -0.000001 0.000000 -0.000002 -0.000001 0.000000 -0.000002 -0.000001 0.000000 -0.000002 -0.000001 0.000000 -0.000002 -0.000001 0.000000 -0.000002 -0.000000 -0.000000 0.000000 0.000001 -0.000004 -0.000001 
-13.428913 27.424667 85.152092 71.458375 25.751063 16.201996 -0.000000 0.000000 0.000000 -113.363573 1.301546 58.570566 117.161267 -0.071976 -2.286650 14.340874 -27.707079 6.631028 -0.000000 -0.000002 -0.000001 0.000001 -0.000000 -0.000002 335.726091 -21.615151 -32.627776 52.873010 -4.390754 -9.375581 -9.871372 -4.623779 31.311848 -0.000000 -0.000000 -0.000001 0.000001 0.000000 -0.000001 6.796518 -25.568309 -15.924545 0.303026 -5.863003 -7.212897 0.528753 -5.599652 -7.258718 -4.751419 0.578499 1.455310 -4.751383 0.578504 1.455302 0.000000 -0.000001 0.000001 -4.751436 0.578472 1.455323 -4.751459 0.578524 1.455310 0.000001 -0.000000 0.000000 0.000000 -0.000001 0.000000 0.952273 11.932314 27.474685 0.305361 -18.842125 -38.965830 -0.000001 -128.571372 -0.000004 43.913164 25.183597 -9.406618 0.756070 -9.170015 -3.252241 5.622890 12.178620 5.354607 -0.000000 -0.000001 -0.000006 0.811129 2.401227 -10.041211 1.091945 3.407684 -35.525252 0.000003 0.000001 0.000002 0.549711 4.702000 -21.747467 0.840788 3.025764 -31.051778 -0.000001 0.000001 0.000000 0.899332 5.383039 -28.564088 1.045265 3.341457 -34.732478 -0.000001 -0.000002 -0.000005 -0.085999 9.257527 -32.736065 0.850749 3.042254 -31.240250 -0.000002 -0.000005 -0.000002 -0.000001 -0.000005 -0.000002 -0.000001 -0.000005 -0.000002 -0.000002 -0.000005 -0.000002 -0.000001 0.000001 0.000003 -0.000000 0.000001 0.000003 -0.000001 0.000001 0.000003 -0.000001 0.000002 0.000002 -0.789859 10.909837 3.465771 -64.719355 24.585845 54.621743 -0.000006 64.759817 -0.000005 55.829529 -3.680636 -24.138893 -15.680029 12.932812 -15.493842 1.312328 -13.365154 -17.259277 0.000001 0.000003 -0.000000 1.785276 2.351742 -13.967660 0.001671 -0.124813 1.532384 -0.000000 -0.000000 -0.000001 -0.761869 -4.802770 -14.729279 0.000260 -0.049126 0.603261 0.000001 -0.000001 0.000000 -1.670036 -8.616079 -14.324551 0.021558 -0.448034 5.508663 0.000001 0.000001 -0.000001 -15.543649 -12.547980 -16.532842 0.032196 -0.547249 6.733757 0.000000 -0.000004 -0.000000 -0.000001 0.000001 0.000002 -0.000001 0.000001 0.000000 -0.000001 0.000001 0.000002 0.000001 0.000001 -0.000000 0.000001 0.000001 -0.000002 0.000001 0.000001 -0.000000 0.000001 0.000001 -0.000002 -0.000000 -0.000000 -0.000001 -0.000000 -0.000000 -0.000001 -0.000000 -0.000000 -0.000001 -0.000000 -0.000000 -0.000001 -0.000000 -0.000000 -0.000001 -0.000000 -0.000000 -0.000001 -0.000000 -0.000000 -0.000001 -0.000000 0.000000 -0.000000 -0.000000 0.000000 0.000000 
